<svg width="334" height="198" viewBox="0 0 334 198" fill="none" xmlns="http://www.w3.org/2000/svg">
<path d="M40.456 104C40.3493 104 40.2587 103.963 40.184 103.888C40.1093 103.813 40.072 103.723 40.072 103.616V93.024C40.072 92.9173 40.1093 92.8267 40.184 92.752C40.2587 92.6773 40.3493 92.64 40.456 92.64H41.88C41.9973 92.64 42.088 92.6773 42.152 92.752C42.2267 92.8267 42.264 92.9173 42.264 93.024V96.672C42.552 96.3307 42.904 96.0533 43.32 95.84C43.736 95.6267 44.248 95.52 44.856 95.52C45.5067 95.52 46.072 95.6693 46.552 95.968C47.0427 96.256 47.4213 96.6667 47.688 97.2C47.9547 97.7333 48.088 98.3733 48.088 99.12V103.616C48.088 103.723 48.0507 103.813 47.976 103.888C47.9013 103.963 47.8107 104 47.704 104H46.264C46.1573 104 46.0667 103.963 45.992 103.888C45.9173 103.813 45.88 103.723 45.88 103.616V99.216C45.88 98.5973 45.7253 98.112 45.416 97.76C45.1173 97.408 44.68 97.232 44.104 97.232C43.5493 97.232 43.1013 97.408 42.76 97.76C42.4293 98.112 42.264 98.5973 42.264 99.216V103.616C42.264 103.723 42.2267 103.813 42.152 103.888C42.088 103.963 41.9973 104 41.88 104H40.456ZM53.7848 104C53.1448 104 52.6061 103.888 52.1688 103.664C51.7314 103.44 51.4061 103.109 51.1928 102.672C50.9794 102.224 50.8728 101.669 50.8728 101.008V97.376H49.6088C49.5021 97.376 49.4114 97.3387 49.3368 97.264C49.2621 97.1893 49.2248 97.0987 49.2248 96.992V96.064C49.2248 95.9573 49.2621 95.8667 49.3368 95.792C49.4114 95.7173 49.5021 95.68 49.6088 95.68H50.8728V93.024C50.8728 92.9173 50.9048 92.8267 50.9688 92.752C51.0434 92.6773 51.1394 92.64 51.2568 92.64H52.5528C52.6594 92.64 52.7501 92.6773 52.8248 92.752C52.8994 92.8267 52.9368 92.9173 52.9368 93.024V95.68H54.9368C55.0434 95.68 55.1341 95.7173 55.2088 95.792C55.2834 95.8667 55.3208 95.9573 55.3208 96.064V96.992C55.3208 97.0987 55.2834 97.1893 55.2088 97.264C55.1341 97.3387 55.0434 97.376 54.9368 97.376H52.9368V100.848C52.9368 101.285 53.0114 101.627 53.1608 101.872C53.3208 102.117 53.5928 102.24 53.9768 102.24H55.0808C55.1874 102.24 55.2781 102.277 55.3528 102.352C55.4274 102.427 55.4648 102.517 55.4648 102.624V103.616C55.4648 103.723 55.4274 103.813 55.3528 103.888C55.2781 103.963 55.1874 104 55.0808 104H53.7848ZM60.6441 104C60.0041 104 59.4655 103.888 59.0281 103.664C58.5908 103.44 58.2655 103.109 58.0521 102.672C57.8388 102.224 57.7321 101.669 57.7321 101.008V97.376H56.4681C56.3615 97.376 56.2708 97.3387 56.1961 97.264C56.1215 97.1893 56.0841 97.0987 56.0841 96.992V96.064C56.0841 95.9573 56.1215 95.8667 56.1961 95.792C56.2708 95.7173 56.3615 95.68 56.4681 95.68H57.7321V93.024C57.7321 92.9173 57.7641 92.8267 57.8281 92.752C57.9028 92.6773 57.9988 92.64 58.1161 92.64H59.4121C59.5188 92.64 59.6095 92.6773 59.6841 92.752C59.7588 92.8267 59.7961 92.9173 59.7961 93.024V95.68H61.7961C61.9028 95.68 61.9935 95.7173 62.0681 95.792C62.1428 95.8667 62.1801 95.9573 62.1801 96.064V96.992C62.1801 97.0987 62.1428 97.1893 62.0681 97.264C61.9935 97.3387 61.9028 97.376 61.7961 97.376H59.7961V100.848C59.7961 101.285 59.8708 101.627 60.0201 101.872C60.1801 102.117 60.4521 102.24 60.8361 102.24H61.9401C62.0468 102.24 62.1375 102.277 62.2121 102.352C62.2868 102.427 62.3241 102.517 62.3241 102.624V103.616C62.3241 103.723 62.2868 103.813 62.2121 103.888C62.1375 103.963 62.0468 104 61.9401 104H60.6441ZM64.1435 107.04C64.0368 107.04 63.9462 107.003 63.8715 106.928C63.7968 106.853 63.7595 106.763 63.7595 106.656V96.064C63.7595 95.9573 63.7968 95.8667 63.8715 95.792C63.9462 95.7173 64.0368 95.68 64.1435 95.68H65.4075C65.5248 95.68 65.6155 95.7173 65.6795 95.792C65.7542 95.8667 65.7915 95.9573 65.7915 96.064V96.704C66.0475 96.3627 66.3835 96.08 66.7995 95.856C67.2155 95.632 67.7328 95.52 68.3515 95.52C68.9168 95.52 69.4075 95.6107 69.8235 95.792C70.2395 95.9733 70.5862 96.2347 70.8635 96.576C71.1408 96.9067 71.3542 97.3013 71.5035 97.76C71.6528 98.2187 71.7382 98.7253 71.7595 99.28C71.7702 99.4613 71.7755 99.648 71.7755 99.84C71.7755 100.032 71.7702 100.224 71.7595 100.416C71.7488 100.949 71.6688 101.445 71.5195 101.904C71.3702 102.352 71.1515 102.747 70.8635 103.088C70.5862 103.419 70.2395 103.68 69.8235 103.872C69.4075 104.064 68.9168 104.16 68.3515 104.16C67.7755 104.16 67.2848 104.059 66.8795 103.856C66.4742 103.643 66.1435 103.365 65.8875 103.024V106.656C65.8875 106.763 65.8502 106.853 65.7755 106.928C65.7115 107.003 65.6208 107.04 65.5035 107.04H64.1435ZM67.7595 102.448C68.2182 102.448 68.5755 102.352 68.8315 102.16C69.0875 101.957 69.2688 101.696 69.3755 101.376C69.4928 101.056 69.5622 100.704 69.5835 100.32C69.6048 100 69.6048 99.68 69.5835 99.36C69.5622 98.976 69.4928 98.624 69.3755 98.304C69.2688 97.984 69.0875 97.728 68.8315 97.536C68.5755 97.3333 68.2182 97.232 67.7595 97.232C67.3222 97.232 66.9648 97.3333 66.6875 97.536C66.4208 97.7387 66.2235 98 66.0955 98.32C65.9782 98.6293 65.9088 98.9493 65.8875 99.28C65.8768 99.472 65.8715 99.6747 65.8715 99.888C65.8715 100.101 65.8768 100.309 65.8875 100.512C65.8982 100.832 65.9728 101.141 66.1115 101.44C66.2502 101.728 66.4528 101.968 66.7195 102.16C66.9862 102.352 67.3328 102.448 67.7595 102.448ZM76.7236 104.16C76.0836 104.16 75.5343 104.085 75.0756 103.936C74.6276 103.787 74.2596 103.6 73.9716 103.376C73.6836 103.152 73.4703 102.928 73.3316 102.704C73.193 102.48 73.1183 102.293 73.1076 102.144C73.097 102.027 73.129 101.936 73.2036 101.872C73.289 101.797 73.3796 101.76 73.4756 101.76H74.7396C74.7823 101.76 74.8196 101.765 74.8516 101.776C74.8836 101.787 74.9263 101.819 74.9796 101.872C75.1183 101.989 75.2623 102.112 75.4116 102.24C75.5716 102.368 75.7583 102.48 75.9716 102.576C76.185 102.661 76.4516 102.704 76.7716 102.704C77.1876 102.704 77.5343 102.624 77.8116 102.464C78.0996 102.293 78.2436 102.053 78.2436 101.744C78.2436 101.52 78.1796 101.339 78.0516 101.2C77.9343 101.061 77.7103 100.939 77.3796 100.832C77.049 100.715 76.5796 100.592 75.9716 100.464C75.3743 100.325 74.8783 100.149 74.4836 99.936C74.089 99.7227 73.7956 99.456 73.6036 99.136C73.4116 98.816 73.3156 98.4427 73.3156 98.016C73.3156 97.6 73.4383 97.2053 73.6836 96.832C73.9396 96.448 74.313 96.1333 74.8036 95.888C75.305 95.6427 75.9236 95.52 76.6596 95.52C77.2356 95.52 77.737 95.5947 78.1636 95.744C78.5903 95.8827 78.9423 96.0587 79.2196 96.272C79.5076 96.4853 79.7263 96.704 79.8756 96.928C80.025 97.1413 80.105 97.328 80.1156 97.488C80.1263 97.6053 80.0943 97.7013 80.0196 97.776C79.945 97.84 79.8596 97.872 79.7636 97.872H78.5796C78.5263 97.872 78.4783 97.8613 78.4356 97.84C78.393 97.8187 78.3503 97.792 78.3076 97.76C78.1903 97.6533 78.0623 97.5413 77.9236 97.424C77.785 97.3067 77.6143 97.2053 77.4116 97.12C77.2196 97.024 76.9636 96.976 76.6436 96.976C76.2383 96.976 75.929 97.0667 75.7156 97.248C75.5023 97.4187 75.3956 97.6373 75.3956 97.904C75.3956 98.0853 75.4436 98.2453 75.5396 98.384C75.6463 98.512 75.8543 98.6347 76.1636 98.752C76.473 98.8693 76.9423 98.992 77.5716 99.12C78.2863 99.248 78.8516 99.44 79.2676 99.696C79.6943 99.9413 79.993 100.229 80.1636 100.56C80.345 100.88 80.4356 101.237 80.4356 101.632C80.4356 102.112 80.2916 102.544 80.0036 102.928C79.7263 103.312 79.3103 103.616 78.7556 103.84C78.2116 104.053 77.5343 104.16 76.7236 104.16ZM82.4233 98.4C82.3166 98.4 82.2259 98.3627 82.1513 98.288C82.0766 98.2133 82.0393 98.1227 82.0393 98.016V96.496C82.0393 96.3787 82.0766 96.2827 82.1513 96.208C82.2259 96.1333 82.3166 96.096 82.4233 96.096H84.0073C84.1246 96.096 84.2206 96.1333 84.2953 96.208C84.3699 96.2827 84.4073 96.3787 84.4073 96.496V98.016C84.4073 98.1227 84.3699 98.2133 84.2953 98.288C84.2206 98.3627 84.1246 98.4 84.0073 98.4H82.4233ZM82.4233 104C82.3166 104 82.2259 103.963 82.1513 103.888C82.0766 103.813 82.0393 103.723 82.0393 103.616V102.096C82.0393 101.979 82.0766 101.883 82.1513 101.808C82.2259 101.733 82.3166 101.696 82.4233 101.696H84.0073C84.1246 101.696 84.2206 101.733 84.2953 101.808C84.3699 101.883 84.4073 101.979 84.4073 102.096V103.616C84.4073 103.723 84.3699 103.813 84.2953 103.888C84.2206 103.963 84.1246 104 84.0073 104H82.4233ZM86.1419 105.344C86.0565 105.344 85.9819 105.312 85.9179 105.248C85.8539 105.184 85.8219 105.104 85.8219 105.008C85.8219 104.965 85.8325 104.907 85.8539 104.832L91.2939 91.76C91.3365 91.6853 91.3952 91.6107 91.4699 91.536C91.5445 91.4613 91.6512 91.424 91.7899 91.424H92.8299C92.9152 91.424 92.9899 91.456 93.0539 91.52C93.1285 91.584 93.1659 91.664 93.1659 91.76C93.1659 91.8027 93.1499 91.8613 93.1179 91.936L87.6619 105.008C87.6299 105.072 87.5765 105.141 87.5019 105.216C87.4272 105.301 87.3152 105.344 87.1659 105.344H86.1419ZM90.7825 105.344C90.6972 105.344 90.6225 105.312 90.5585 105.248C90.4945 105.184 90.4625 105.104 90.4625 105.008C90.4625 104.965 90.4732 104.907 90.4945 104.832L95.9345 91.76C95.9772 91.6853 96.0358 91.6107 96.1105 91.536C96.1852 91.4613 96.2918 91.424 96.4305 91.424H97.4705C97.5558 91.424 97.6305 91.456 97.6945 91.52C97.7692 91.584 97.8065 91.664 97.8065 91.76C97.8065 91.8027 97.7905 91.8613 97.7585 91.936L92.3025 105.008C92.2705 105.072 92.2172 105.141 92.1425 105.216C92.0678 105.301 91.9558 105.344 91.8065 105.344H90.7825ZM99.0185 107.04C98.9118 107.04 98.8212 107.003 98.7465 106.928C98.6718 106.853 98.6345 106.763 98.6345 106.656V96.064C98.6345 95.9573 98.6718 95.8667 98.7465 95.792C98.8212 95.7173 98.9118 95.68 99.0185 95.68H100.283C100.4 95.68 100.491 95.7173 100.555 95.792C100.629 95.8667 100.667 95.9573 100.667 96.064V96.704C100.923 96.3627 101.259 96.08 101.674 95.856C102.091 95.632 102.608 95.52 103.227 95.52C103.792 95.52 104.283 95.6107 104.699 95.792C105.115 95.9733 105.461 96.2347 105.739 96.576C106.016 96.9067 106.229 97.3013 106.378 97.76C106.528 98.2187 106.613 98.7253 106.635 99.28C106.645 99.4613 106.651 99.648 106.651 99.84C106.651 100.032 106.645 100.224 106.635 100.416C106.624 100.949 106.544 101.445 106.395 101.904C106.245 102.352 106.027 102.747 105.739 103.088C105.461 103.419 105.115 103.68 104.699 103.872C104.283 104.064 103.792 104.16 103.227 104.16C102.651 104.16 102.16 104.059 101.755 103.856C101.349 103.643 101.019 103.365 100.763 103.024V106.656C100.763 106.763 100.725 106.853 100.651 106.928C100.587 107.003 100.496 107.04 100.379 107.04H99.0185ZM102.635 102.448C103.093 102.448 103.451 102.352 103.707 102.16C103.963 101.957 104.144 101.696 104.251 101.376C104.368 101.056 104.437 100.704 104.459 100.32C104.48 100 104.48 99.68 104.459 99.36C104.437 98.976 104.368 98.624 104.251 98.304C104.144 97.984 103.963 97.728 103.707 97.536C103.451 97.3333 103.093 97.232 102.635 97.232C102.197 97.232 101.84 97.3333 101.562 97.536C101.296 97.7387 101.099 98 100.971 98.32C100.853 98.6293 100.784 98.9493 100.763 99.28C100.752 99.472 100.747 99.6747 100.747 99.888C100.747 100.101 100.752 100.309 100.763 100.512C100.773 100.832 100.848 101.141 100.987 101.44C101.125 101.728 101.328 101.968 101.595 102.16C101.861 102.352 102.208 102.448 102.635 102.448ZM112.127 104.16C111.273 104.16 110.553 104.011 109.967 103.712C109.391 103.413 108.948 102.992 108.639 102.448C108.34 101.904 108.169 101.269 108.127 100.544C108.116 100.352 108.111 100.117 108.111 99.84C108.111 99.5627 108.116 99.328 108.127 99.136C108.169 98.4 108.345 97.7653 108.655 97.232C108.975 96.688 109.423 96.2667 109.999 95.968C110.585 95.6693 111.295 95.52 112.127 95.52C112.959 95.52 113.663 95.6693 114.239 95.968C114.825 96.2667 115.273 96.688 115.583 97.232C115.903 97.7653 116.084 98.4 116.127 99.136C116.137 99.328 116.143 99.5627 116.143 99.84C116.143 100.117 116.137 100.352 116.127 100.544C116.084 101.269 115.908 101.904 115.599 102.448C115.3 102.992 114.857 103.413 114.271 103.712C113.695 104.011 112.98 104.16 112.127 104.16ZM112.127 102.576C112.692 102.576 113.129 102.4 113.439 102.048C113.748 101.685 113.919 101.157 113.951 100.464C113.961 100.304 113.967 100.096 113.967 99.84C113.967 99.584 113.961 99.376 113.951 99.216C113.919 98.5333 113.748 98.0107 113.439 97.648C113.129 97.2853 112.692 97.104 112.127 97.104C111.561 97.104 111.124 97.2853 110.815 97.648C110.505 98.0107 110.335 98.5333 110.303 99.216C110.292 99.376 110.287 99.584 110.287 99.84C110.287 100.096 110.292 100.304 110.303 100.464C110.335 101.157 110.505 101.685 110.815 102.048C111.124 102.4 111.561 102.576 112.127 102.576ZM118.315 104C118.209 104 118.118 103.963 118.043 103.888C117.969 103.813 117.931 103.723 117.931 103.616V93.024C117.931 92.9173 117.969 92.8267 118.043 92.752C118.118 92.6773 118.209 92.64 118.315 92.64H119.643C119.75 92.64 119.841 92.6773 119.915 92.752C119.99 92.8267 120.027 92.9173 120.027 93.024V103.616C120.027 103.723 119.99 103.813 119.915 103.888C119.841 103.963 119.75 104 119.643 104H118.315ZM123.654 107.04C123.568 107.04 123.494 107.008 123.43 106.944C123.366 106.88 123.334 106.805 123.334 106.72C123.334 106.677 123.334 106.635 123.334 106.592C123.344 106.56 123.366 106.517 123.398 106.464L124.646 103.504L121.574 96.256C121.531 96.1493 121.51 96.0747 121.51 96.032C121.52 95.936 121.558 95.856 121.622 95.792C121.686 95.7173 121.766 95.68 121.862 95.68H123.158C123.286 95.68 123.382 95.712 123.446 95.776C123.51 95.84 123.558 95.9093 123.59 95.984L125.718 101.216L127.91 95.984C127.942 95.8987 127.99 95.8293 128.054 95.776C128.118 95.712 128.214 95.68 128.342 95.68H129.622C129.707 95.68 129.782 95.712 129.846 95.776C129.92 95.84 129.958 95.9147 129.958 96C129.958 96.064 129.936 96.1493 129.894 96.256L125.366 106.736C125.323 106.821 125.27 106.891 125.206 106.944C125.142 107.008 125.046 107.04 124.918 107.04H123.654ZM131.721 104C131.615 104 131.524 103.963 131.449 103.888C131.375 103.813 131.337 103.723 131.337 103.616V96.064C131.337 95.9573 131.375 95.8667 131.449 95.792C131.524 95.7173 131.615 95.68 131.721 95.68H132.969C133.076 95.68 133.167 95.7173 133.241 95.792C133.316 95.8667 133.353 95.9573 133.353 96.064V96.608C133.577 96.3093 133.876 96.0587 134.249 95.856C134.633 95.6427 135.087 95.5307 135.609 95.52C136.825 95.4987 137.673 95.9733 138.153 96.944C138.399 96.5173 138.751 96.176 139.209 95.92C139.679 95.6533 140.196 95.52 140.761 95.52C141.316 95.52 141.817 95.648 142.265 95.904C142.724 96.16 143.081 96.5493 143.337 97.072C143.604 97.584 143.737 98.2347 143.737 99.024V103.616C143.737 103.723 143.7 103.813 143.625 103.888C143.551 103.963 143.46 104 143.353 104H142.041C141.935 104 141.844 103.963 141.769 103.888C141.695 103.813 141.657 103.723 141.657 103.616V99.152C141.657 98.672 141.588 98.2933 141.449 98.016C141.311 97.728 141.124 97.5253 140.889 97.408C140.655 97.2907 140.393 97.232 140.105 97.232C139.871 97.232 139.636 97.2907 139.401 97.408C139.167 97.5253 138.975 97.728 138.825 98.016C138.676 98.2933 138.601 98.672 138.601 99.152V103.616C138.601 103.723 138.564 103.813 138.489 103.888C138.415 103.963 138.324 104 138.217 104H136.905C136.788 104 136.692 103.963 136.617 103.888C136.553 103.813 136.521 103.723 136.521 103.616V99.152C136.521 98.672 136.447 98.2933 136.297 98.016C136.148 97.728 135.956 97.5253 135.721 97.408C135.487 97.2907 135.236 97.232 134.969 97.232C134.724 97.232 134.484 97.296 134.249 97.424C134.015 97.5413 133.823 97.7387 133.673 98.016C133.524 98.2933 133.449 98.672 133.449 99.152V103.616C133.449 103.723 133.412 103.813 133.337 103.888C133.263 103.963 133.172 104 133.065 104H131.721ZM148.191 104.16C147.636 104.16 147.135 104.053 146.687 103.84C146.239 103.616 145.881 103.323 145.615 102.96C145.359 102.587 145.231 102.171 145.231 101.712C145.231 100.965 145.529 100.373 146.127 99.936C146.735 99.488 147.535 99.1893 148.527 99.04L150.719 98.72V98.384C150.719 97.936 150.607 97.5893 150.383 97.344C150.159 97.0987 149.775 96.976 149.231 96.976C148.847 96.976 148.532 97.056 148.287 97.216C148.052 97.3653 147.876 97.568 147.759 97.824C147.673 97.9627 147.551 98.032 147.391 98.032H146.127C146.009 98.032 145.919 98 145.855 97.936C145.801 97.872 145.775 97.7867 145.775 97.68C145.785 97.5093 145.855 97.3013 145.983 97.056C146.111 96.8107 146.313 96.576 146.591 96.352C146.868 96.1173 147.225 95.92 147.663 95.76C148.1 95.6 148.628 95.52 149.247 95.52C149.919 95.52 150.484 95.6053 150.943 95.776C151.412 95.936 151.785 96.1547 152.063 96.432C152.34 96.7093 152.543 97.0347 152.671 97.408C152.799 97.7813 152.863 98.176 152.863 98.592V103.616C152.863 103.723 152.825 103.813 152.751 103.888C152.676 103.963 152.585 104 152.479 104H151.183C151.065 104 150.969 103.963 150.895 103.888C150.831 103.813 150.799 103.723 150.799 103.616V102.992C150.66 103.195 150.473 103.387 150.239 103.568C150.004 103.739 149.716 103.883 149.375 104C149.044 104.107 148.649 104.16 148.191 104.16ZM148.735 102.64C149.108 102.64 149.444 102.56 149.743 102.4C150.052 102.24 150.292 101.995 150.463 101.664C150.644 101.323 150.735 100.896 150.735 100.384V100.048L149.135 100.304C148.505 100.4 148.036 100.555 147.727 100.768C147.417 100.981 147.263 101.243 147.263 101.552C147.263 101.787 147.332 101.989 147.471 102.16C147.62 102.32 147.807 102.443 148.031 102.528C148.255 102.603 148.489 102.64 148.735 102.64ZM155.299 104C155.193 104 155.102 103.963 155.027 103.888C154.953 103.813 154.915 103.723 154.915 103.616V96.08C154.915 95.9627 154.953 95.8667 155.027 95.792C155.102 95.7173 155.193 95.68 155.299 95.68H156.595C156.702 95.68 156.793 95.7173 156.867 95.792C156.953 95.8667 156.995 95.9627 156.995 96.08V96.736C157.241 96.3947 157.555 96.1333 157.939 95.952C158.334 95.7707 158.787 95.68 159.299 95.68H159.955C160.073 95.68 160.163 95.7173 160.227 95.792C160.302 95.8667 160.339 95.9573 160.339 96.064V97.216C160.339 97.3227 160.302 97.4133 160.227 97.488C160.163 97.5627 160.073 97.6 159.955 97.6H158.707C158.195 97.6 157.795 97.744 157.507 98.032C157.23 98.32 157.091 98.7147 157.091 99.216V103.616C157.091 103.723 157.054 103.813 156.979 103.888C156.905 103.963 156.809 104 156.691 104H155.299ZM161.987 104C161.881 104 161.79 103.963 161.715 103.888C161.641 103.813 161.603 103.723 161.603 103.616V93.024C161.603 92.9173 161.641 92.8267 161.715 92.752C161.79 92.6773 161.881 92.64 161.987 92.64H163.283C163.401 92.64 163.491 92.6773 163.555 92.752C163.63 92.8267 163.667 92.9173 163.667 93.024V98.496L166.355 95.952C166.451 95.8667 166.537 95.8027 166.611 95.76C166.686 95.7067 166.798 95.68 166.947 95.68H168.435C168.542 95.68 168.627 95.712 168.691 95.776C168.755 95.84 168.787 95.9253 168.787 96.032C168.787 96.0747 168.777 96.1227 168.755 96.176C168.734 96.2293 168.691 96.2773 168.627 96.32L165.331 99.408L169.027 103.376C169.134 103.483 169.187 103.573 169.187 103.648C169.187 103.755 169.15 103.84 169.075 103.904C169.011 103.968 168.931 104 168.835 104H167.315C167.155 104 167.038 103.979 166.963 103.936C166.899 103.883 166.819 103.813 166.723 103.728L163.667 100.512V103.616C163.667 103.723 163.63 103.813 163.555 103.888C163.491 103.963 163.401 104 163.283 104H161.987ZM173.578 104.16C172.394 104.16 171.455 103.819 170.762 103.136C170.068 102.453 169.695 101.483 169.642 100.224C169.631 100.117 169.626 99.984 169.626 99.824C169.626 99.6533 169.631 99.52 169.642 99.424C169.684 98.624 169.866 97.9307 170.186 97.344C170.516 96.7573 170.97 96.3093 171.546 96C172.122 95.68 172.799 95.52 173.578 95.52C174.442 95.52 175.167 95.7013 175.754 96.064C176.34 96.416 176.783 96.912 177.082 97.552C177.38 98.1813 177.53 98.912 177.53 99.744V100.08C177.53 100.187 177.492 100.277 177.418 100.352C177.343 100.427 177.247 100.464 177.13 100.464H171.818C171.818 100.464 171.818 100.48 171.818 100.512C171.818 100.544 171.818 100.571 171.818 100.592C171.828 100.965 171.898 101.312 172.026 101.632C172.164 101.941 172.362 102.192 172.618 102.384C172.884 102.576 173.199 102.672 173.562 102.672C173.86 102.672 174.111 102.629 174.314 102.544C174.516 102.448 174.682 102.341 174.81 102.224C174.938 102.107 175.028 102.011 175.082 101.936C175.178 101.808 175.252 101.733 175.306 101.712C175.37 101.68 175.46 101.664 175.578 101.664H176.954C177.06 101.664 177.146 101.696 177.21 101.76C177.284 101.824 177.316 101.904 177.306 102C177.295 102.171 177.204 102.379 177.034 102.624C176.874 102.869 176.639 103.109 176.33 103.344C176.02 103.579 175.631 103.776 175.162 103.936C174.703 104.085 174.175 104.16 173.578 104.16ZM171.818 99.12H175.354V99.072C175.354 98.656 175.284 98.2933 175.146 97.984C175.007 97.6747 174.804 97.4293 174.538 97.248C174.271 97.0667 173.951 96.976 173.578 96.976C173.204 96.976 172.884 97.0667 172.618 97.248C172.351 97.4293 172.148 97.6747 172.01 97.984C171.882 98.2933 171.818 98.656 171.818 99.072V99.12ZM182.957 104C182.317 104 181.778 103.888 181.341 103.664C180.903 103.44 180.578 103.109 180.365 102.672C180.151 102.224 180.045 101.669 180.045 101.008V97.376H178.781C178.674 97.376 178.583 97.3387 178.509 97.264C178.434 97.1893 178.397 97.0987 178.397 96.992V96.064C178.397 95.9573 178.434 95.8667 178.509 95.792C178.583 95.7173 178.674 95.68 178.781 95.68H180.045V93.024C180.045 92.9173 180.077 92.8267 180.141 92.752C180.215 92.6773 180.311 92.64 180.429 92.64H181.725C181.831 92.64 181.922 92.6773 181.997 92.752C182.071 92.8267 182.109 92.9173 182.109 93.024V95.68H184.109C184.215 95.68 184.306 95.7173 184.381 95.792C184.455 95.8667 184.493 95.9573 184.493 96.064V96.992C184.493 97.0987 184.455 97.1893 184.381 97.264C184.306 97.3387 184.215 97.376 184.109 97.376H182.109V100.848C182.109 101.285 182.183 101.627 182.333 101.872C182.493 102.117 182.765 102.24 183.149 102.24H184.253C184.359 102.24 184.45 102.277 184.525 102.352C184.599 102.427 184.637 102.517 184.637 102.624V103.616C184.637 103.723 184.599 103.813 184.525 103.888C184.45 103.963 184.359 104 184.253 104H182.957ZM186.344 104C186.237 104 186.147 103.963 186.072 103.888C185.997 103.813 185.96 103.723 185.96 103.616V102.032C185.96 101.915 185.997 101.819 186.072 101.744C186.147 101.669 186.237 101.632 186.344 101.632H187.944C188.051 101.632 188.141 101.669 188.216 101.744C188.291 101.819 188.328 101.915 188.328 102.032V103.616C188.328 103.723 188.291 103.813 188.216 103.888C188.141 103.963 188.051 104 187.944 104H186.344ZM193.828 104.16C193.06 104.16 192.383 104.016 191.796 103.728C191.22 103.44 190.767 103.024 190.436 102.48C190.116 101.925 189.94 101.259 189.908 100.48C189.897 100.32 189.892 100.112 189.892 99.856C189.892 99.5893 189.897 99.3707 189.908 99.2C189.94 98.4213 190.116 97.76 190.436 97.216C190.767 96.6613 191.22 96.24 191.796 95.952C192.383 95.664 193.06 95.52 193.828 95.52C194.511 95.52 195.092 95.616 195.572 95.808C196.052 96 196.447 96.24 196.756 96.528C197.065 96.816 197.295 97.12 197.444 97.44C197.604 97.7493 197.689 98.032 197.7 98.288C197.711 98.4053 197.673 98.5013 197.588 98.576C197.513 98.64 197.423 98.672 197.316 98.672H195.908C195.801 98.672 195.716 98.6453 195.652 98.592C195.599 98.5387 195.545 98.4587 195.492 98.352C195.332 97.9253 195.119 97.6267 194.852 97.456C194.596 97.2747 194.265 97.184 193.86 97.184C193.327 97.184 192.9 97.3547 192.58 97.696C192.271 98.0267 192.105 98.5547 192.084 99.28C192.063 99.6853 192.063 100.059 192.084 100.4C192.105 101.136 192.271 101.669 192.58 102C192.9 102.331 193.327 102.496 193.86 102.496C194.276 102.496 194.612 102.411 194.868 102.24C195.124 102.059 195.332 101.755 195.492 101.328C195.545 101.221 195.599 101.141 195.652 101.088C195.716 101.035 195.801 101.008 195.908 101.008H197.316C197.423 101.008 197.513 101.045 197.588 101.12C197.673 101.184 197.711 101.275 197.7 101.392C197.689 101.584 197.636 101.803 197.54 102.048C197.455 102.283 197.311 102.528 197.108 102.784C196.916 103.029 196.671 103.259 196.372 103.472C196.073 103.675 195.711 103.84 195.284 103.968C194.868 104.096 194.383 104.16 193.828 104.16ZM203.049 104.16C202.195 104.16 201.475 104.011 200.889 103.712C200.313 103.413 199.87 102.992 199.561 102.448C199.262 101.904 199.091 101.269 199.049 100.544C199.038 100.352 199.033 100.117 199.033 99.84C199.033 99.5627 199.038 99.328 199.049 99.136C199.091 98.4 199.267 97.7653 199.577 97.232C199.897 96.688 200.345 96.2667 200.921 95.968C201.507 95.6693 202.217 95.52 203.049 95.52C203.881 95.52 204.585 95.6693 205.161 95.968C205.747 96.2667 206.195 96.688 206.505 97.232C206.825 97.7653 207.006 98.4 207.049 99.136C207.059 99.328 207.065 99.5627 207.065 99.84C207.065 100.117 207.059 100.352 207.049 100.544C207.006 101.269 206.83 101.904 206.521 102.448C206.222 102.992 205.779 103.413 205.193 103.712C204.617 104.011 203.902 104.16 203.049 104.16ZM203.049 102.576C203.614 102.576 204.051 102.4 204.361 102.048C204.67 101.685 204.841 101.157 204.873 100.464C204.883 100.304 204.889 100.096 204.889 99.84C204.889 99.584 204.883 99.376 204.873 99.216C204.841 98.5333 204.67 98.0107 204.361 97.648C204.051 97.2853 203.614 97.104 203.049 97.104C202.483 97.104 202.046 97.2853 201.737 97.648C201.427 98.0107 201.257 98.5333 201.225 99.216C201.214 99.376 201.209 99.584 201.209 99.84C201.209 100.096 201.214 100.304 201.225 100.464C201.257 101.157 201.427 101.685 201.737 102.048C202.046 102.4 202.483 102.576 203.049 102.576ZM209.221 104C209.115 104 209.024 103.963 208.949 103.888C208.875 103.813 208.837 103.723 208.837 103.616V96.064C208.837 95.9573 208.875 95.8667 208.949 95.792C209.024 95.7173 209.115 95.68 209.221 95.68H210.469C210.576 95.68 210.667 95.7173 210.741 95.792C210.816 95.8667 210.853 95.9573 210.853 96.064V96.608C211.077 96.3093 211.376 96.0587 211.749 95.856C212.133 95.6427 212.587 95.5307 213.109 95.52C214.325 95.4987 215.173 95.9733 215.653 96.944C215.899 96.5173 216.251 96.176 216.709 95.92C217.179 95.6533 217.696 95.52 218.261 95.52C218.816 95.52 219.317 95.648 219.765 95.904C220.224 96.16 220.581 96.5493 220.837 97.072C221.104 97.584 221.237 98.2347 221.237 99.024V103.616C221.237 103.723 221.2 103.813 221.125 103.888C221.051 103.963 220.96 104 220.853 104H219.541C219.435 104 219.344 103.963 219.269 103.888C219.195 103.813 219.157 103.723 219.157 103.616V99.152C219.157 98.672 219.088 98.2933 218.949 98.016C218.811 97.728 218.624 97.5253 218.389 97.408C218.155 97.2907 217.893 97.232 217.605 97.232C217.371 97.232 217.136 97.2907 216.901 97.408C216.667 97.5253 216.475 97.728 216.325 98.016C216.176 98.2933 216.101 98.672 216.101 99.152V103.616C216.101 103.723 216.064 103.813 215.989 103.888C215.915 103.963 215.824 104 215.717 104H214.405C214.288 104 214.192 103.963 214.117 103.888C214.053 103.813 214.021 103.723 214.021 103.616V99.152C214.021 98.672 213.947 98.2933 213.797 98.016C213.648 97.728 213.456 97.5253 213.221 97.408C212.987 97.2907 212.736 97.232 212.469 97.232C212.224 97.232 211.984 97.296 211.749 97.424C211.515 97.5413 211.323 97.7387 211.173 98.016C211.024 98.2933 210.949 98.672 210.949 99.152V103.616C210.949 103.723 210.912 103.813 210.837 103.888C210.763 103.963 210.672 104 210.565 104H209.221ZM222.939 105.344C222.853 105.344 222.779 105.312 222.715 105.248C222.651 105.184 222.619 105.104 222.619 105.008C222.619 104.965 222.629 104.907 222.651 104.832L228.091 91.76C228.133 91.6853 228.192 91.6107 228.267 91.536C228.341 91.4613 228.448 91.424 228.587 91.424H229.627C229.712 91.424 229.787 91.456 229.851 91.52C229.925 91.584 229.963 91.664 229.963 91.76C229.963 91.8027 229.947 91.8613 229.915 91.936L224.459 105.008C224.427 105.072 224.373 105.141 224.299 105.216C224.224 105.301 224.112 105.344 223.963 105.344H222.939ZM234.14 104.16C232.956 104.16 232.017 103.819 231.324 103.136C230.631 102.453 230.257 101.483 230.204 100.224C230.193 100.117 230.188 99.984 230.188 99.824C230.188 99.6533 230.193 99.52 230.204 99.424C230.247 98.624 230.428 97.9307 230.748 97.344C231.079 96.7573 231.532 96.3093 232.108 96C232.684 95.68 233.361 95.52 234.14 95.52C235.004 95.52 235.729 95.7013 236.316 96.064C236.903 96.416 237.345 96.912 237.644 97.552C237.943 98.1813 238.092 98.912 238.092 99.744V100.08C238.092 100.187 238.055 100.277 237.98 100.352C237.905 100.427 237.809 100.464 237.692 100.464H232.38C232.38 100.464 232.38 100.48 232.38 100.512C232.38 100.544 232.38 100.571 232.38 100.592C232.391 100.965 232.46 101.312 232.588 101.632C232.727 101.941 232.924 102.192 233.18 102.384C233.447 102.576 233.761 102.672 234.124 102.672C234.423 102.672 234.673 102.629 234.876 102.544C235.079 102.448 235.244 102.341 235.372 102.224C235.5 102.107 235.591 102.011 235.644 101.936C235.74 101.808 235.815 101.733 235.868 101.712C235.932 101.68 236.023 101.664 236.14 101.664H237.516C237.623 101.664 237.708 101.696 237.772 101.76C237.847 101.824 237.879 101.904 237.868 102C237.857 102.171 237.767 102.379 237.596 102.624C237.436 102.869 237.201 103.109 236.892 103.344C236.583 103.579 236.193 103.776 235.724 103.936C235.265 104.085 234.737 104.16 234.14 104.16ZM232.38 99.12H235.916V99.072C235.916 98.656 235.847 98.2933 235.708 97.984C235.569 97.6747 235.367 97.4293 235.1 97.248C234.833 97.0667 234.513 96.976 234.14 96.976C233.767 96.976 233.447 97.0667 233.18 97.248C232.913 97.4293 232.711 97.6747 232.572 97.984C232.444 98.2933 232.38 98.656 232.38 99.072V99.12ZM242.438 104C242.267 104 242.139 103.963 242.054 103.888C241.979 103.803 241.915 103.707 241.862 103.6L238.87 96.176C238.848 96.1227 238.838 96.0747 238.838 96.032C238.838 95.936 238.87 95.856 238.934 95.792C239.008 95.7173 239.094 95.68 239.19 95.68H240.486C240.614 95.68 240.71 95.7173 240.774 95.792C240.838 95.856 240.88 95.92 240.902 95.984L243.03 101.6L245.158 95.984C245.179 95.92 245.222 95.856 245.286 95.792C245.35 95.7173 245.446 95.68 245.574 95.68H246.885C246.971 95.68 247.046 95.7173 247.11 95.792C247.184 95.856 247.222 95.936 247.222 96.032C247.222 96.0747 247.216 96.1227 247.206 96.176L244.198 103.6C244.155 103.707 244.091 103.803 244.006 103.888C243.92 103.963 243.792 104 243.622 104H242.438ZM251.968 104.16C250.784 104.16 249.845 103.819 249.152 103.136C248.459 102.453 248.085 101.483 248.032 100.224C248.021 100.117 248.016 99.984 248.016 99.824C248.016 99.6533 248.021 99.52 248.032 99.424C248.075 98.624 248.256 97.9307 248.576 97.344C248.907 96.7573 249.36 96.3093 249.936 96C250.512 95.68 251.189 95.52 251.968 95.52C252.832 95.52 253.557 95.7013 254.144 96.064C254.731 96.416 255.173 96.912 255.472 97.552C255.771 98.1813 255.92 98.912 255.92 99.744V100.08C255.92 100.187 255.883 100.277 255.808 100.352C255.733 100.427 255.637 100.464 255.52 100.464H250.208C250.208 100.464 250.208 100.48 250.208 100.512C250.208 100.544 250.208 100.571 250.208 100.592C250.219 100.965 250.288 101.312 250.416 101.632C250.555 101.941 250.752 102.192 251.008 102.384C251.275 102.576 251.589 102.672 251.952 102.672C252.251 102.672 252.501 102.629 252.704 102.544C252.907 102.448 253.072 102.341 253.2 102.224C253.328 102.107 253.419 102.011 253.472 101.936C253.568 101.808 253.643 101.733 253.696 101.712C253.76 101.68 253.851 101.664 253.968 101.664H255.344C255.451 101.664 255.536 101.696 255.6 101.76C255.675 101.824 255.707 101.904 255.696 102C255.685 102.171 255.595 102.379 255.424 102.624C255.264 102.869 255.029 103.109 254.72 103.344C254.411 103.579 254.021 103.776 253.552 103.936C253.093 104.085 252.565 104.16 251.968 104.16ZM250.208 99.12H253.744V99.072C253.744 98.656 253.675 98.2933 253.536 97.984C253.397 97.6747 253.195 97.4293 252.928 97.248C252.661 97.0667 252.341 96.976 251.968 96.976C251.595 96.976 251.275 97.0667 251.008 97.248C250.741 97.4293 250.539 97.6747 250.4 97.984C250.272 98.2933 250.208 98.656 250.208 99.072V99.12ZM258.003 104C257.896 104 257.805 103.963 257.731 103.888C257.656 103.813 257.618 103.723 257.618 103.616V96.064C257.618 95.9573 257.656 95.8667 257.731 95.792C257.805 95.7173 257.896 95.68 258.003 95.68H259.315C259.421 95.68 259.512 95.7173 259.587 95.792C259.661 95.8667 259.699 95.9573 259.699 96.064V96.72C259.976 96.3787 260.328 96.096 260.755 95.872C261.192 95.6373 261.731 95.52 262.371 95.52C263.021 95.52 263.587 95.6693 264.067 95.968C264.547 96.256 264.915 96.6667 265.171 97.2C265.437 97.7333 265.571 98.3733 265.571 99.12V103.616C265.571 103.723 265.533 103.813 265.459 103.888C265.384 103.963 265.293 104 265.187 104H263.779C263.672 104 263.581 103.963 263.507 103.888C263.432 103.813 263.395 103.723 263.395 103.616V99.216C263.395 98.5973 263.24 98.112 262.931 97.76C262.632 97.408 262.195 97.232 261.619 97.232C261.064 97.232 260.621 97.408 260.291 97.76C259.96 98.112 259.795 98.5973 259.795 99.216V103.616C259.795 103.723 259.757 103.813 259.683 103.888C259.608 103.963 259.517 104 259.411 104H258.003ZM271.269 104C270.629 104 270.09 103.888 269.653 103.664C269.216 103.44 268.89 103.109 268.677 102.672C268.464 102.224 268.357 101.669 268.357 101.008V97.376H267.093C266.986 97.376 266.896 97.3387 266.821 97.264C266.746 97.1893 266.709 97.0987 266.709 96.992V96.064C266.709 95.9573 266.746 95.8667 266.821 95.792C266.896 95.7173 266.986 95.68 267.093 95.68H268.357V93.024C268.357 92.9173 268.389 92.8267 268.453 92.752C268.528 92.6773 268.624 92.64 268.741 92.64H270.037C270.144 92.64 270.234 92.6773 270.309 92.752C270.384 92.8267 270.421 92.9173 270.421 93.024V95.68H272.421C272.528 95.68 272.618 95.7173 272.693 95.792C272.768 95.8667 272.805 95.9573 272.805 96.064V96.992C272.805 97.0987 272.768 97.1893 272.693 97.264C272.618 97.3387 272.528 97.376 272.421 97.376H270.421V100.848C270.421 101.285 270.496 101.627 270.645 101.872C270.805 102.117 271.077 102.24 271.461 102.24H272.565C272.672 102.24 272.762 102.277 272.837 102.352C272.912 102.427 272.949 102.517 272.949 102.624V103.616C272.949 103.723 272.912 103.813 272.837 103.888C272.762 103.963 272.672 104 272.565 104H271.269ZM274.033 105.344C273.947 105.344 273.873 105.312 273.809 105.248C273.745 105.184 273.713 105.104 273.713 105.008C273.713 104.965 273.723 104.907 273.745 104.832L279.185 91.76C279.227 91.6853 279.286 91.6107 279.361 91.536C279.435 91.4613 279.542 91.424 279.681 91.424H280.721C280.806 91.424 280.881 91.456 280.945 91.52C281.019 91.584 281.057 91.664 281.057 91.76C281.057 91.8027 281.041 91.8613 281.009 91.936L275.553 105.008C275.521 105.072 275.467 105.141 275.393 105.216C275.318 105.301 275.206 105.344 275.057 105.344H274.033ZM282.782 104C282.675 104 282.584 103.963 282.51 103.888C282.435 103.813 282.398 103.723 282.398 103.616V102.032C282.398 101.915 282.435 101.819 282.51 101.744C282.584 101.669 282.675 101.632 282.782 101.632H284.382C284.488 101.632 284.579 101.669 284.654 101.744C284.728 101.819 284.766 101.915 284.766 102.032V103.616C284.766 103.723 284.728 103.813 284.654 103.888C284.579 103.963 284.488 104 284.382 104H282.782ZM287.063 104C286.956 104 286.865 103.963 286.791 103.888C286.716 103.813 286.679 103.723 286.679 103.616V102.032C286.679 101.915 286.716 101.819 286.791 101.744C286.865 101.669 286.956 101.632 287.063 101.632H288.663C288.769 101.632 288.86 101.669 288.935 101.744C289.009 101.819 289.047 101.915 289.047 102.032V103.616C289.047 103.723 289.009 103.813 288.935 103.888C288.86 103.963 288.769 104 288.663 104H287.063ZM291.344 104C291.237 104 291.147 103.963 291.072 103.888C290.997 103.813 290.96 103.723 290.96 103.616V102.032C290.96 101.915 290.997 101.819 291.072 101.744C291.147 101.669 291.237 101.632 291.344 101.632H292.944C293.051 101.632 293.141 101.669 293.216 101.744C293.291 101.819 293.328 101.915 293.328 102.032V103.616C293.328 103.723 293.291 103.813 293.216 103.888C293.141 103.963 293.051 104 292.944 104H291.344Z" fill="#00A6F4"/>
<path d="M281.667 113.467L279 116M269.8 118.667L265.933 117.6M271 124L268.467 126.667M272.6 110.933L273.667 114.8M275.049 120.92C274.998 120.798 274.983 120.664 275.009 120.534C275.034 120.404 275.097 120.285 275.191 120.191C275.285 120.097 275.404 120.034 275.534 120.009C275.664 119.983 275.798 119.998 275.92 120.049L290.587 126.049C290.717 126.103 290.827 126.196 290.901 126.317C290.975 126.437 291.009 126.577 290.998 126.718C290.987 126.859 290.932 126.992 290.84 127.099C290.749 127.207 290.625 127.282 290.488 127.315L284.689 128.703C284.45 128.76 284.231 128.882 284.057 129.056C283.883 129.23 283.76 129.449 283.703 129.688L282.316 135.488C282.284 135.626 282.208 135.75 282.101 135.842C281.994 135.934 281.86 135.989 281.719 136C281.578 136.011 281.437 135.977 281.316 135.903C281.196 135.828 281.103 135.718 281.049 135.587L275.049 120.92Z" stroke="#FE9A00" stroke-width="2.66667" stroke-linecap="round" stroke-linejoin="round"/>
</svg>
