<svg width="334" height="198" viewBox="0 0 334 198" fill="none" xmlns="http://www.w3.org/2000/svg">
<rect x="109" y="62" width="116" height="69" rx="8" fill="#00C850"/>
<path d="M136.168 106C135.981 106 135.823 105.935 135.692 105.804C135.561 105.673 135.496 105.515 135.496 105.328V89.844H130.316C130.129 89.844 129.971 89.7787 129.84 89.648C129.709 89.5173 129.644 89.3587 129.644 89.172V87.1C129.644 86.8947 129.709 86.7267 129.84 86.596C129.971 86.4653 130.129 86.4 130.316 86.4H144.596C144.801 86.4 144.969 86.4653 145.1 86.596C145.231 86.7267 145.296 86.8947 145.296 87.1V89.172C145.296 89.3587 145.231 89.5173 145.1 89.648C144.969 89.7787 144.801 89.844 144.596 89.844H139.444V105.328C139.444 105.515 139.379 105.673 139.248 105.804C139.117 105.935 138.949 106 138.744 106H136.168ZM146.614 106C146.427 106 146.268 105.935 146.138 105.804C146.007 105.673 145.942 105.515 145.942 105.328V92.14C145.942 91.9347 146.007 91.7667 146.138 91.636C146.268 91.5053 146.427 91.44 146.614 91.44H148.882C149.068 91.44 149.227 91.5053 149.358 91.636C149.507 91.7667 149.582 91.9347 149.582 92.14V93.288C150.011 92.6907 150.562 92.2333 151.234 91.916C151.924 91.5987 152.718 91.44 153.614 91.44H154.762C154.967 91.44 155.126 91.5053 155.238 91.636C155.368 91.7667 155.434 91.9253 155.434 92.112V94.128C155.434 94.3147 155.368 94.4733 155.238 94.604C155.126 94.7347 154.967 94.8 154.762 94.8H152.578C151.682 94.8 150.982 95.052 150.478 95.556C149.992 96.06 149.75 96.7507 149.75 97.628V105.328C149.75 105.515 149.684 105.673 149.554 105.804C149.423 105.935 149.255 106 149.05 106H146.614ZM161.627 106.28C160.656 106.28 159.779 106.093 158.995 105.72C158.211 105.328 157.585 104.815 157.119 104.18C156.671 103.527 156.447 102.799 156.447 101.996C156.447 100.689 156.969 99.6533 158.015 98.888C159.079 98.104 160.479 97.5813 162.215 97.32L166.051 96.76V96.172C166.051 95.388 165.855 94.7813 165.463 94.352C165.071 93.9227 164.399 93.708 163.447 93.708C162.775 93.708 162.224 93.848 161.795 94.128C161.384 94.3893 161.076 94.744 160.871 95.192C160.721 95.4347 160.507 95.556 160.227 95.556H158.015C157.809 95.556 157.651 95.5 157.539 95.388C157.445 95.276 157.399 95.1267 157.399 94.94C157.417 94.6413 157.539 94.2773 157.763 93.848C157.987 93.4187 158.341 93.008 158.827 92.616C159.312 92.2053 159.937 91.86 160.703 91.58C161.468 91.3 162.392 91.16 163.475 91.16C164.651 91.16 165.64 91.3093 166.443 91.608C167.264 91.888 167.917 92.2707 168.403 92.756C168.888 93.2413 169.243 93.8107 169.467 94.464C169.691 95.1173 169.803 95.808 169.803 96.536V105.328C169.803 105.515 169.737 105.673 169.607 105.804C169.476 105.935 169.317 106 169.131 106H166.863C166.657 106 166.489 105.935 166.359 105.804C166.247 105.673 166.191 105.515 166.191 105.328V104.236C165.948 104.591 165.621 104.927 165.211 105.244C164.8 105.543 164.296 105.795 163.699 106C163.12 106.187 162.429 106.28 161.627 106.28ZM162.579 103.62C163.232 103.62 163.82 103.48 164.343 103.2C164.884 102.92 165.304 102.491 165.603 101.912C165.92 101.315 166.079 100.568 166.079 99.672V99.084L163.279 99.532C162.177 99.7 161.356 99.9707 160.815 100.344C160.273 100.717 160.003 101.175 160.003 101.716C160.003 102.127 160.124 102.481 160.367 102.78C160.628 103.06 160.955 103.275 161.347 103.424C161.739 103.555 162.149 103.62 162.579 103.62ZM178.799 106.28C177.828 106.28 176.97 106.121 176.223 105.804C175.495 105.468 174.888 105.001 174.403 104.404C173.918 103.807 173.544 103.107 173.283 102.304C173.022 101.483 172.872 100.587 172.835 99.616C172.816 99.28 172.807 98.9813 172.807 98.72C172.807 98.44 172.816 98.132 172.835 97.796C172.872 96.8627 173.012 95.9947 173.255 95.192C173.516 94.3893 173.89 93.6893 174.375 93.092C174.879 92.476 175.495 92 176.223 91.664C176.97 91.328 177.828 91.16 178.799 91.16C179.807 91.16 180.656 91.3373 181.347 91.692C182.056 92.028 182.644 92.4667 183.111 93.008V86.792C183.111 86.6053 183.167 86.4467 183.279 86.316C183.41 86.1853 183.578 86.12 183.783 86.12H186.163C186.35 86.12 186.508 86.1853 186.639 86.316C186.77 86.4467 186.835 86.6053 186.835 86.792V105.328C186.835 105.515 186.77 105.673 186.639 105.804C186.508 105.935 186.35 106 186.163 106H183.951C183.746 106 183.578 105.935 183.447 105.804C183.335 105.673 183.279 105.515 183.279 105.328V104.292C182.812 104.871 182.215 105.347 181.487 105.72C180.778 106.093 179.882 106.28 178.799 106.28ZM179.835 103.284C180.619 103.284 181.244 103.107 181.711 102.752C182.178 102.397 182.523 101.949 182.747 101.408C182.971 100.848 183.092 100.279 183.111 99.7C183.13 99.364 183.139 99.0093 183.139 98.636C183.139 98.244 183.13 97.88 183.111 97.544C183.092 96.984 182.962 96.452 182.719 95.948C182.476 95.4253 182.122 94.996 181.655 94.66C181.188 94.324 180.582 94.156 179.835 94.156C179.051 94.156 178.426 94.3333 177.959 94.688C177.511 95.024 177.184 95.472 176.979 96.032C176.774 96.592 176.652 97.208 176.615 97.88C176.596 98.44 176.596 99 176.615 99.56C176.652 100.232 176.774 100.848 176.979 101.408C177.184 101.968 177.511 102.425 177.959 102.78C178.426 103.116 179.051 103.284 179.835 103.284ZM196.839 106.28C194.767 106.28 193.124 105.683 191.911 104.488C190.697 103.293 190.044 101.595 189.951 99.392C189.932 99.2053 189.923 98.972 189.923 98.692C189.923 98.3933 189.932 98.16 189.951 97.992C190.025 96.592 190.343 95.3787 190.903 94.352C191.481 93.3253 192.275 92.5413 193.283 92C194.291 91.44 195.476 91.16 196.839 91.16C198.351 91.16 199.62 91.4773 200.647 92.112C201.673 92.728 202.448 93.596 202.971 94.716C203.493 95.8173 203.755 97.096 203.755 98.552V99.14C203.755 99.3267 203.689 99.4853 203.559 99.616C203.428 99.7467 203.26 99.812 203.055 99.812H193.759C193.759 99.812 193.759 99.84 193.759 99.896C193.759 99.952 193.759 99.9987 193.759 100.036C193.777 100.689 193.899 101.296 194.123 101.856C194.365 102.397 194.711 102.836 195.159 103.172C195.625 103.508 196.176 103.676 196.811 103.676C197.333 103.676 197.772 103.601 198.127 103.452C198.481 103.284 198.771 103.097 198.995 102.892C199.219 102.687 199.377 102.519 199.471 102.388C199.639 102.164 199.769 102.033 199.863 101.996C199.975 101.94 200.133 101.912 200.339 101.912H202.747C202.933 101.912 203.083 101.968 203.195 102.08C203.325 102.192 203.381 102.332 203.363 102.5C203.344 102.799 203.185 103.163 202.887 103.592C202.607 104.021 202.196 104.441 201.655 104.852C201.113 105.263 200.432 105.608 199.611 105.888C198.808 106.149 197.884 106.28 196.839 106.28ZM193.759 97.46H199.947V97.376C199.947 96.648 199.825 96.0133 199.583 95.472C199.34 94.9307 198.985 94.5013 198.519 94.184C198.052 93.8667 197.492 93.708 196.839 93.708C196.185 93.708 195.625 93.8667 195.159 94.184C194.692 94.5013 194.337 94.9307 194.095 95.472C193.871 96.0133 193.759 96.648 193.759 97.376V97.46Z" fill="white"/>
<path d="M225.333 138.667C225.333 141.496 224.21 144.209 222.209 146.209C220.209 148.21 217.496 149.333 214.667 149.333M220 134.667V133.333C220 132.626 219.719 131.948 219.219 131.448C218.719 130.948 218.041 130.667 217.333 130.667C216.626 130.667 215.948 130.948 215.448 131.448C214.948 131.948 214.667 132.626 214.667 133.333V132C214.667 131.293 214.386 130.614 213.886 130.114C213.386 129.614 212.707 129.333 212 129.333C211.293 129.333 210.614 129.614 210.114 130.114C209.614 130.614 209.333 131.293 209.333 132V133.333M209.333 132.667V125.333C209.333 124.626 209.052 123.948 208.552 123.448C208.052 122.948 207.374 122.667 206.667 122.667C205.959 122.667 205.281 122.948 204.781 123.448C204.281 123.948 204 124.626 204 125.333V138.667" stroke="#FE9A00" stroke-width="2.66667" stroke-linecap="round" stroke-linejoin="round"/>
<path d="M220 134.667C220 133.959 220.281 133.281 220.781 132.781C221.281 132.281 221.959 132 222.667 132C223.374 132 224.052 132.281 224.552 132.781C225.052 133.281 225.333 133.959 225.333 134.667V138.667C225.333 141.496 224.21 144.209 222.209 146.209C220.209 148.21 217.496 149.333 214.667 149.333H212C208.267 149.333 206 148.187 204.013 146.213L199.213 141.413C198.755 140.905 198.509 140.24 198.527 139.556C198.545 138.872 198.825 138.22 199.31 137.737C199.795 137.254 200.447 136.976 201.132 136.96C201.816 136.945 202.48 137.193 202.987 137.653L205.333 140" stroke="#FE9A00" stroke-width="2.66667" stroke-linecap="round" stroke-linejoin="round"/>
</svg>
