<svg xmlns="http://www.w3.org/2000/svg" version="1.1" xmlns:xlink="http://www.w3.org/1999/xlink" width="400" height="400"><svg xmlns="http://www.w3.org/2000/svg" version="1.1" xmlns:xlink="http://www.w3.org/1999/xlink" width="400" height="400"><svg width="400" height="400" viewBox="0 0 400 400" fill="none" xmlns="http://www.w3.org/2000/svg">
<path d="M287.5 112.5L112.5 287.5" stroke="#00A6F4" stroke-width="24" stroke-linecap="round" stroke-linejoin="round"></path>
<path d="M131.25 162.5C148.509 162.5 162.5 148.509 162.5 131.25C162.5 113.991 148.509 100 131.25 100C113.991 100 100 113.991 100 131.25C100 148.509 113.991 162.5 131.25 162.5Z" stroke="#00A6F4" stroke-width="24" stroke-linecap="round" stroke-linejoin="round"></path>
<path d="M268.75 300C286.009 300 300 286.009 300 268.75C300 251.491 286.009 237.5 268.75 237.5C251.491 237.5 237.5 251.491 237.5 268.75C237.5 286.009 251.491 300 268.75 300Z" stroke="#00A6F4" stroke-width="24" stroke-linecap="round" stroke-linejoin="round"></path>
</svg></svg><style>@media (prefers-color-scheme: light) { :root { filter: none; } }
@media (prefers-color-scheme: dark) { :root { filter: none; } }
</style></svg>